<svg xmlns="http://www.w3.org/2000/svg" viewBox="0 0 220 200" width="220" height="200">
  <!-- dimension line -->
  <g stroke="#b04a78" stroke-width="1.2" fill="none">
    <path d="M42 22 H178 M42 14 V30 M178 14 V30"/>
    <path d="M42 22 l7 -4 M42 22 l7 4 M178 22 l-7 -4 M178 22 l-7 4"/>
  </g>
  <rect x="88" y="14" width="44" height="16" fill="#fffaf7"/>
  <text x="110" y="26" text-anchor="middle" font-family="IBM Plex Mono, monospace" font-size="11" fill="#b04a78">1 cat</text>

  <!-- head -->
  <path d="M50 98 L44 44 L86 72 Q110 64 134 72 L176 44 L170 98 Q186 128 164 152 Q110 186 56 152 Q34 128 50 98 Z"
        fill="#fffaf7" stroke="#4a2440" stroke-width="3" stroke-linejoin="round"/>
  <path d="M54 60 L53 84 L72 73 Z M166 60 L167 84 L148 73 Z" fill="#f7b0cc"/>

  <!-- face -->
  <g stroke="#4a2440" stroke-width="3" fill="none" stroke-linecap="round">
    <path d="M78 112 Q88 102 98 112 M122 112 Q132 102 142 112"/>
    <path d="M110 131 Q104 139 97 135 M110 131 Q116 139 123 135"/>
  </g>
  <path d="M104 124 L116 124 L110 131 Z" fill="#e04f8a"/>
  <ellipse cx="80" cy="130" rx="9" ry="5" fill="#f7b0cc" opacity=".7"/>
  <ellipse cx="140" cy="130" rx="9" ry="5" fill="#f7b0cc" opacity=".7"/>
  <g stroke="#4a2440" stroke-width="1.5" stroke-linecap="round">
    <path d="M68 126 L36 120 M68 133 L34 137 M152 126 L184 120 M152 133 L186 137"/>
  </g>

  <!-- bow -->
  <g transform="translate(168 50) rotate(18)" stroke="#4a2440" stroke-width="2.2" stroke-linejoin="round">
    <path d="M0 0 L-18 -11 L-18 11 Z M0 0 L18 -11 L18 11 Z" fill="#f7b0cc"/>
    <circle r="4.5" fill="#e04f8a"/>
  </g>
</svg>
